<svg id="Layer_1" data-name="Layer 1" xmlns="http://www.w3.org/2000/svg" viewBox="0 0 997.69135 207.6922"><defs><style>.cls-1,.cls-2{fill:#2b6a73;}.cls-2{font-size:173.44542px;font-family:Aeonik-Bold, Aeonik;font-weight:700;letter-spacing:0.01em;}.cls-3{fill:#66b49e;}</style></defs><path class="cls-1" d="M229.17027,518.24554v43.61288a5.20186,5.20186,0,0,1-5.20336,5.20336h-27.5171a2.43021,2.43021,0,0,0-1.71709,4.14537l19.45184,19.44338a5.21285,5.21285,0,0,1,0,7.36254l-30.84733,30.83864a5.20261,5.20261,0,0,1-7.35407,0l-19.50392-19.49525a2.42235,2.42235,0,0,0-4.13669,1.7171v27.56918a5.20186,5.20186,0,0,1-5.20337,5.20336H103.51762a5.20336,5.20336,0,0,1-5.20336-5.20336V583.173a21.32758,21.32758,0,0,1,2.66388-10.475,48.65853,48.65853,0,0,1,28.07949-22.62506,10.53984,10.53984,0,0,0,0-20.1372,48.64649,48.64649,0,0,1-28.051-22.58,21.5197,21.5197,0,0,1-2.69239-10.58852v-55.41a5.20336,5.20336,0,0,1,5.20336-5.20336h43.62156a5.20336,5.20336,0,0,1,5.20337,5.20336v27.56918a2.42421,2.42421,0,0,0,4.13669,1.7171l19.50392-19.49525a5.187,5.187,0,0,1,7.35407,0l30.84733,30.83843a5.21336,5.21336,0,0,1,0,7.363l-19.56469,19.5558a2.4242,2.4242,0,0,0,1.7173,4.13669h27.62974A5.20337,5.20337,0,0,1,229.17027,518.24554Z" transform="translate(-41.15435 -436.1539)"/><text class="cls-2" transform="translate(245.46582 159.69473)">DiagnoAI</text><path class="cls-3" d="M118.24365,542.44855A57.53968,57.53968,0,0,0,83.018,577.67416a2.59233,2.59233,0,0,1-4.8971,0,57.53963,57.53963,0,0,0-35.22561-35.22561,2.59233,2.59233,0,0,1,0-4.8971,57.53963,57.53963,0,0,0,35.22561-35.22561,2.59233,2.59233,0,0,1,4.8971,0,57.53968,57.53968,0,0,0,35.22561,35.22561A2.59233,2.59233,0,0,1,118.24365,542.44855Z" transform="translate(-41.15435 -436.1539)"/></svg>