<svg id="Layer_1" data-name="Layer 1" xmlns="http://www.w3.org/2000/svg" viewBox="0 0 1080 1080"><defs><style>.cls-1{fill:#2b6a73;}.cls-2{fill:#66b49e;}.cls-3{fill:none;}</style></defs><path class="cls-1" d="M931.19942,449.4722V630.9604a21.64672,21.64672,0,0,1-21.653,21.653H795.03834a10.113,10.113,0,0,0-7.14541,17.25031l80.94581,80.91056a21.69246,21.69246,0,0,1,0,30.638L740.47241,909.7425a21.64987,21.64987,0,0,1-30.6028,0l-81.16255-81.12642a10.08021,10.08021,0,0,0-17.21419,7.14541V950.48633a21.64672,21.64672,0,0,1-21.653,21.653H408.31558a21.653,21.653,0,0,1-21.653-21.653l0-230.82875a88.75143,88.75143,0,0,1,11.08535-43.59A202.48477,202.48477,0,0,1,514.59632,581.917a43.85988,43.85988,0,0,0,0-83.7978,202.4348,202.4348,0,0,1-116.72976-93.963,89.55084,89.55084,0,0,1-11.204-44.06244l0-230.58a21.653,21.653,0,0,1,21.653-21.653H589.83989a21.653,21.653,0,0,1,21.653,21.653V244.23851a10.088,10.088,0,0,0,17.21419,7.14541l81.16255-81.12642a21.5847,21.5847,0,0,1,30.6028,0L868.83874,298.58682a21.69459,21.69459,0,0,1,0,30.63981L787.42332,410.605a10.08794,10.08794,0,0,0,7.1463,17.21419H909.54644A21.653,21.653,0,0,1,931.19942,449.4722Z"/><path class="cls-2" d="M469.59566,550.18925A239.44242,239.44242,0,0,0,323.00978,696.77513a10.78759,10.78759,0,0,1-20.3785,0A239.4424,239.4424,0,0,0,156.0454,550.18925a10.78759,10.78759,0,0,1,0-20.3785A239.4424,239.4424,0,0,0,302.63128,383.22487a10.78759,10.78759,0,0,1,20.3785,0A239.44242,239.44242,0,0,0,469.59566,529.81075,10.78758,10.78758,0,0,1,469.59566,550.18925Z"/><rect class="cls-3" width="1080" height="1080"/></svg>