<svg width="46" height="46" viewBox="0 0 46 46" fill="none" xmlns="http://www.w3.org/2000/svg">
<rect width="46" height="46" rx="11.04" fill="#D9ECF8"/>
<g clip-path="url(#clip0_7119_18148)">
<path d="M31.2207 23.4682H32.2599C32.4536 24.0159 32.9763 24.4095 33.5895 24.4095C34.367 24.4095 34.9995 23.777 34.9995 22.9995C34.9995 22.222 34.367 21.5895 33.5895 21.5895C32.9763 21.5895 32.4536 21.983 32.2599 22.5308H31.2207C31.1125 20.6127 30.3449 18.8683 29.1415 17.5207L31.4982 15.1642C31.8627 15.4025 32.2885 15.5307 32.7341 15.5307C33.9861 15.5307 34.9995 14.5175 34.9995 13.2654C34.9995 12.0133 33.9863 11 32.7341 11C31.4821 11 30.4687 12.0132 30.4687 13.2654C30.4687 13.711 30.597 14.1368 30.8352 14.5013L28.4786 16.8579C27.131 15.6545 25.3867 14.8869 23.4687 14.7788V13.7396C24.0164 13.546 24.41 13.0233 24.41 12.4101C24.41 11.6326 23.7775 11 23 11C22.2225 11 21.59 11.6326 21.59 12.41C21.59 13.0232 21.9836 13.546 22.5313 13.7396V14.7788C20.6133 14.8869 18.869 15.6545 17.5214 16.8578L15.1648 14.5013C15.4031 14.1368 15.5313 13.711 15.5313 13.2654C15.5313 12.0133 14.5181 11 13.2659 11C12.0139 11 11.0005 12.0132 11.0005 13.2654C11.0005 14.5174 12.0137 15.5307 13.2659 15.5307C13.7116 15.5307 14.1373 15.4025 14.5018 15.1642L16.8585 17.5207C15.655 18.8683 14.8875 20.6127 14.7793 22.5308H13.7401C13.5464 21.983 13.0237 21.5895 12.4105 21.5895C11.6331 21.5895 11.0005 22.222 11.0005 22.9995C11.0005 23.777 11.6331 24.4095 12.4105 24.4095C13.0237 24.4095 13.5465 24.0159 13.7401 23.4682H14.7793C14.8875 25.3863 15.6551 27.1306 16.8585 28.4782L14.5018 30.8347C13.636 30.2687 12.4453 30.3505 11.664 31.1317C10.7787 32.0171 10.7786 33.45 11.664 34.3355C12.5494 35.2208 13.9823 35.2209 14.8678 34.3355C15.2956 33.9076 15.5313 33.3387 15.5313 32.7336C15.5313 32.2879 15.403 31.8622 15.1648 31.4977L17.5214 29.1411C18.869 30.3444 20.6133 31.112 22.5313 31.2202V32.2593C21.9836 32.453 21.59 32.9757 21.59 33.5889C21.59 34.3664 22.2225 34.9989 23 34.9989C23.7775 34.9989 24.41 34.3664 24.41 33.5889C24.41 32.9757 24.0164 32.453 23.4687 32.2593V31.2202C25.3867 31.112 27.131 30.3444 28.4786 29.1411L30.8352 31.4977C30.2693 32.3634 30.351 33.5541 31.1322 34.3355C32.0176 35.2208 33.4505 35.2209 34.336 34.3355C35.2213 33.4501 35.2214 32.0172 34.336 31.1317C33.5548 30.3506 32.3641 30.2686 31.4982 30.8347L29.1415 28.4782C30.3449 27.1307 31.1125 25.3863 31.2207 23.4682ZM33.5895 22.5269C33.8501 22.5269 34.062 22.7389 34.062 22.9995C34.062 23.2601 33.8501 23.4721 33.5895 23.4721C33.3289 23.4721 33.1169 23.2601 33.1169 22.9995C33.1169 22.7389 33.3289 22.5269 33.5895 22.5269ZM32.7341 11.9375C33.468 11.9375 34.062 12.5313 34.062 13.2654C34.062 13.9992 33.4681 14.5933 32.7341 14.5933C32.0141 14.5933 31.4062 14.011 31.4062 13.2654C31.4062 12.5315 32.0001 11.9375 32.7341 11.9375ZM23 11.9375C23.2606 11.9375 23.4726 12.1494 23.4726 12.41C23.4726 12.6706 23.2606 12.8826 23 12.8826C22.7394 12.8826 22.5274 12.6706 22.5274 12.41C22.5274 12.1495 22.7394 11.9375 23 11.9375ZM11.938 13.2654C11.938 12.5315 12.5319 11.9375 13.2659 11.9375C13.9997 11.9375 14.5938 12.5313 14.5938 13.2654C14.5938 13.9853 14.0115 14.5933 13.2659 14.5933C12.532 14.5933 11.938 13.9994 11.938 13.2654ZM12.4105 23.4721C12.15 23.4721 11.938 23.2601 11.938 22.9995C11.938 22.7389 12.15 22.5269 12.4105 22.5269C12.6711 22.5269 12.8831 22.7389 12.8831 22.9995C12.8831 23.2601 12.6711 23.4721 12.4105 23.4721ZM23 15.7026C27.0235 15.7026 30.2969 18.976 30.2969 22.9995C30.2969 27.0231 27.0235 30.2964 23 30.2964C18.9765 30.2964 15.7031 27.023 15.7031 22.9995C15.7031 18.976 18.9765 15.7026 23 15.7026ZM14.2048 33.6726C13.6859 34.1916 12.8459 34.1916 12.3269 33.6726C11.8079 33.1536 11.8079 32.3137 12.3269 31.7947C12.8436 31.278 13.6787 31.2754 14.1986 31.7887C14.7611 32.3704 14.6886 33.1888 14.2048 33.6726ZM23 34.0615C22.7394 34.0615 22.5274 33.8495 22.5274 33.5889C22.5274 33.3284 22.7394 33.1164 23 33.1164C23.2606 33.1164 23.4726 33.3284 23.4726 33.5889C23.4726 33.8495 23.2606 34.0615 23 34.0615ZM33.6731 31.7946C34.1921 32.3136 34.1921 33.1536 33.6731 33.6726C33.1541 34.1915 32.3141 34.1915 31.7952 33.6726C31.2785 33.1559 31.2758 32.3208 31.7892 31.8009C31.7913 31.7989 31.7936 31.7971 31.7956 31.7951C31.7977 31.793 31.7994 31.7907 31.8014 31.7886C32.3213 31.2753 33.1564 31.278 33.6731 31.7946Z" fill="#007ECD"/>
<path d="M23.0003 28.8795C26.2432 28.8795 28.8814 26.2412 28.8814 22.9983C28.8814 19.7554 26.2432 17.1172 23.0003 17.1172C19.7574 17.1172 17.1191 19.7554 17.1191 22.9983C17.1191 26.2412 19.7574 28.8795 23.0003 28.8795ZM23.0003 18.0547C25.7262 18.0547 27.944 20.2724 27.944 22.9984C27.944 25.7243 25.7263 27.9421 23.0003 27.9421C20.2743 27.9421 18.0566 25.7244 18.0566 22.9984C18.0566 20.2724 20.2743 18.0547 23.0003 18.0547Z" fill="#007ECD"/>
<path d="M21.119 22.7614C21.8965 22.7614 22.529 22.1289 22.529 21.3514C22.529 20.574 21.8965 19.9414 21.119 19.9414C20.3415 19.9414 19.709 20.574 19.709 21.3514C19.709 22.1289 20.3415 22.7614 21.119 22.7614ZM21.119 20.8789C21.3796 20.8789 21.5915 21.0908 21.5915 21.3514C21.5915 21.612 21.3796 21.824 21.119 21.824C20.8584 21.824 20.6464 21.612 20.6464 21.3514C20.6464 21.0908 20.8584 20.8789 21.119 20.8789Z" fill="#007ECD"/>
<path d="M21.3535 25.1171C21.3535 25.8945 21.986 26.5271 22.7635 26.5271C23.541 26.5271 24.1735 25.8945 24.1735 25.1171C24.1735 24.3396 23.541 23.707 22.7635 23.707C21.986 23.707 21.3535 24.3396 21.3535 25.1171ZM22.7635 24.6445C23.0241 24.6445 23.2361 24.8565 23.2361 25.1171C23.2361 25.3777 23.0241 25.5896 22.7635 25.5896C22.5029 25.5896 22.291 25.3777 22.291 25.1171C22.291 24.8565 22.503 24.6445 22.7635 24.6445Z" fill="#007ECD"/>
<path d="M25.1687 22.5026C25.2844 22.7342 25.5661 22.8279 25.7975 22.7122C26.0291 22.5964 26.1229 22.3149 26.0072 22.0833L25.5365 21.1421C25.4207 20.9105 25.1391 20.8166 24.9076 20.9324C24.6761 21.0482 24.5823 21.3298 24.698 21.5613L25.1687 22.5026Z" fill="#007ECD"/>
</g>
<defs>
<clipPath id="clip0_7119_18148">
<rect width="24" height="24" fill="white" transform="translate(11 11)"/>
</clipPath>
</defs>
</svg>
