<svg width="46" height="46" viewBox="0 0 46 46" fill="none" xmlns="http://www.w3.org/2000/svg">
<rect width="46" height="46" rx="11.04" fill="#E8F8F6"/>
<g clip-path="url(#clip0_7119_18118)">
<path d="M16.3227 11.0045C15.7543 10.9698 15.2063 11.1366 14.7633 11.4708C14.3203 11.1366 13.7724 10.9698 13.2038 11.0045C12.0321 11.0764 11.0871 12.0136 11.0057 13.1843C10.9524 13.9499 11.2756 14.6951 11.8701 15.1777C12.5135 15.7001 12.8825 16.4526 12.8825 17.2425V21.8234C12.8825 22.1969 13.3 22.421 13.6113 22.2134L14.7633 21.4454L15.9153 22.2134C16.2261 22.4207 16.644 22.1975 16.644 21.8234V17.2425C16.644 16.4526 17.0131 15.7001 17.6565 15.1777C18.251 14.6951 18.5741 13.95 18.5209 13.1843C18.4395 12.0136 17.4945 11.0764 16.3227 11.0045ZM17.0655 14.4498C16.2019 15.151 15.7065 16.1688 15.7065 17.2424V20.9474L15.0233 20.4919C14.8659 20.387 14.6607 20.3869 14.5032 20.4919L13.82 20.9474V17.2424C13.82 16.1688 13.3246 15.151 12.4609 14.4498C12.0979 14.1551 11.9084 13.7175 11.9409 13.2493C11.9898 12.5462 12.5574 11.9835 13.2613 11.9403C13.7014 11.9131 14.1207 12.0869 14.4117 12.4168C14.5981 12.6282 14.9283 12.6283 15.1147 12.4168C15.4058 12.0869 15.8249 11.9134 16.2652 11.9403C16.9691 11.9835 17.5367 12.5463 17.5856 13.2493C17.6182 13.7176 17.4286 14.1551 17.0655 14.4498Z" fill="#5ABEAF"/>
<path d="M17.6564 30.8213C17.013 30.299 16.644 29.5465 16.644 28.7566V24.1757C16.644 24.019 16.5656 23.8726 16.4352 23.7857L15.0233 22.8444C14.8658 22.7394 14.6607 22.7394 14.5032 22.8444L13.0912 23.7857C12.9608 23.8726 12.8825 24.019 12.8825 24.1757V28.7565C12.8825 29.5464 12.5135 30.299 11.8701 30.8213C11.2756 31.3039 10.9524 32.0491 11.0057 32.8147C11.0898 34.0248 12.1015 34.9991 13.3518 34.9991C13.867 34.999 14.3589 34.8333 14.7632 34.5282C15.2062 34.8624 15.754 35.0293 16.3227 34.9945C17.4945 34.9225 18.4395 33.9854 18.5209 32.8147C18.574 32.0491 18.2509 31.3039 17.6564 30.8213ZM17.5856 32.7497C17.5367 33.4527 16.9691 34.0155 16.2652 34.0588C15.825 34.0853 15.4058 33.912 15.1147 33.5821C14.9282 33.3707 14.5982 33.3707 14.4117 33.5821C14.1207 33.912 13.7012 34.0854 13.2613 34.0588C12.5574 34.0155 11.9898 33.4527 11.9409 32.7497C11.9084 32.2814 12.0979 31.8439 12.461 31.5492C13.3246 30.848 13.82 29.8302 13.82 28.7566V24.4265L14.7632 23.7978L15.7065 24.4265V28.7566C15.7065 29.8302 16.2019 30.848 17.0655 31.5492C17.4286 31.8439 17.6182 32.2814 17.5856 32.7497Z" fill="#5ABEAF"/>
<path d="M34.5321 24.4138H33.5889V20.6447H34.5321C34.791 20.6447 35.0009 20.4348 35.0009 20.1759C35.0009 19.9171 34.791 19.7072 34.5321 19.7072H33.5889V19.4699C33.5889 18.1734 32.534 17.1186 31.2375 17.1186C30.9786 17.1186 30.7687 17.3285 30.7687 17.5874V19.7072H29.8235V17.2424C29.8235 16.4526 30.1925 15.7 30.836 15.1777C31.4305 14.6951 31.7536 13.9499 31.7004 13.1843C31.619 12.0135 30.674 11.0765 29.5023 11.0045C28.9338 10.9698 28.3858 11.1367 27.9428 11.4708C27.4998 11.1367 26.952 10.9702 26.3834 11.0045C25.2117 11.0765 24.2666 12.0135 24.1852 13.1843C24.132 13.9499 24.4552 14.6951 25.0497 15.1777C25.6931 15.7 26.0621 16.4526 26.0621 17.2424V19.7072H25.117V17.5874C25.117 17.3285 24.9071 17.1186 24.6482 17.1186C23.3517 17.1186 22.2968 18.1734 22.2968 19.4699V19.7072H21.3535C21.0946 19.7072 20.8848 19.9171 20.8848 20.1759C20.8848 20.4348 21.0946 20.6447 21.3535 20.6447H22.2968V24.4138H21.3535C21.0946 24.4138 20.8848 24.6237 20.8848 24.8826C20.8848 25.1414 21.0946 25.3513 21.3535 25.3513H22.2968V25.5885C22.2968 26.8851 23.3516 27.9399 24.6482 27.9399C24.9071 27.9399 25.117 27.73 25.117 27.4712V25.3513H26.0621V28.7574C26.0621 29.5473 25.6931 30.2998 25.0497 30.8221C24.4552 31.3047 24.132 32.0499 24.1852 32.8155C24.2693 34.0253 25.2808 34.9999 26.5314 34.9999C27.0466 34.9998 27.5384 34.8341 27.9428 34.5291C28.3858 34.8632 28.9337 35.0303 29.5023 34.9953C30.674 34.9233 31.619 33.9862 31.7004 32.8155C31.7536 32.0499 31.4305 31.3047 30.836 30.8221C30.1926 30.2998 29.8235 29.5473 29.8235 28.7574V25.3513H30.7687V27.4712C30.7687 27.73 30.9786 27.9399 31.2375 27.9399C32.534 27.9399 33.5889 26.8851 33.5889 25.5885V25.3513H34.5321C34.791 25.3513 35.0009 25.1414 35.0009 24.8826C35.0009 24.6237 34.791 24.4138 34.5321 24.4138ZM25.6406 14.4498C25.2775 14.1551 25.088 13.7174 25.1205 13.2492C25.1694 12.5462 25.737 11.9834 26.4409 11.9402C26.8809 11.913 27.3003 12.0868 27.5914 12.4168C27.7778 12.6282 28.1079 12.6282 28.2944 12.4168C28.5854 12.0869 29.0047 11.9131 29.4448 11.9402C30.1487 11.9834 30.7163 12.5462 30.7652 13.2492C30.7978 13.7174 30.6082 14.1551 30.2452 14.4498C29.3815 15.1509 28.8861 16.1688 28.8861 17.2424V19.7071H26.9997V17.2424C26.9996 16.1688 26.5042 15.1509 25.6406 14.4498ZM26.9996 23.4861L27.9428 22.8573L28.886 23.4861V24.4138H26.9996V23.4861H26.9996ZM28.886 22.3594L28.2028 21.9039C28.0454 21.7989 27.8403 21.7988 27.6828 21.9039L26.9996 22.3594V20.6446H28.886V22.3594ZM24.1795 26.9226C23.6295 26.7288 23.2343 26.204 23.2343 25.5885V19.4699C23.2343 18.8545 23.6295 18.3297 24.1795 18.1359V26.9226ZM25.117 24.4138V20.6447H26.0621V24.4138H25.117ZM30.2451 31.55C30.6082 31.8447 30.7977 32.2823 30.7652 32.7505C30.7163 33.4536 30.1487 34.0163 29.4448 34.0596C29.0048 34.0868 28.5854 33.9129 28.2944 33.583C28.1079 33.3716 27.7778 33.3715 27.5913 33.583C27.3003 33.9129 26.8808 34.0863 26.4409 34.0596C25.737 34.0163 25.1694 33.4536 25.1205 32.7505C25.088 32.2823 25.2775 31.8447 25.6406 31.55C26.5042 30.8489 26.9996 29.831 26.9996 28.7574V25.3513H28.8861V28.7574C28.886 29.831 29.3814 30.8489 30.2451 31.55ZM29.8235 24.4138V20.6447H30.7687V24.4138H29.8235ZM32.6514 25.5885C32.6514 26.204 32.2562 26.7288 31.7062 26.9226V18.1359C32.2562 18.3297 32.6514 18.8545 32.6514 19.4699V25.5885Z" fill="#5ABEAF"/>
</g>
<defs>
<clipPath id="clip0_7119_18118">
<rect width="24" height="24" fill="white" transform="translate(11 11)"/>
</clipPath>
</defs>
</svg>
