<svg width="46" height="46" viewBox="0 0 46 46" fill="none" xmlns="http://www.w3.org/2000/svg">
<rect width="46" height="46" rx="11.04" fill="#FEEEEE"/>
<g clip-path="url(#clip0_7119_18134)">
<path d="M30.7833 20.5544C30.8749 20.2007 31.1968 19.9388 31.5788 19.9388H32.1627V18.5327H31.5788C30.8306 18.5327 30.1674 18.9034 29.7632 19.4707C29.5578 19.295 29.3418 19.1313 29.1165 18.9805V18.8882C29.1165 18.1752 29.6966 17.5951 30.4096 17.5951H30.5221V16.189H30.4096C29.1285 16.189 28.0529 17.0862 27.7783 18.2853C27.1607 18.0469 26.5002 17.8958 25.8118 17.8469V16.9306C25.8118 15.9866 26.5798 15.2186 27.5238 15.2186H29.0704V11H27.2516C24.2814 11 21.8384 13.3004 21.6105 16.2132C21.1056 16.0455 20.566 15.9546 20.0055 15.9546H19.4602V11H15.2416V17.5179C14.9872 17.4166 14.7099 17.3609 14.4199 17.3609H13.8359V18.767H14.4199C14.8729 18.767 15.2415 19.1356 15.2415 19.5887V20.3303C14.9871 20.2291 14.7099 20.1733 14.4199 20.1733H13.8359V21.5795H14.4199C14.8729 21.5795 15.2415 21.9481 15.2415 22.4011V24.6921C15.127 30.2318 20.008 35.1125 25.5474 34.998H28.5623C30.5479 34.998 32.1633 33.3827 32.1633 31.3971V24.6703C32.1633 23.1265 31.6492 21.7004 30.7833 20.5544ZM22.9993 16.6585C22.9993 14.3138 24.9069 12.4061 27.2516 12.4061H27.6642V13.8125H27.5238C25.8044 13.8125 24.4057 15.2112 24.4057 16.9306V17.8296H23.9551C23.6767 17.4896 23.3553 17.1861 22.9993 16.9274V16.6585H22.9993ZM16.6477 12.4061H18.054V15.9546H16.6477V12.4061ZM28.5623 33.5919H25.5474C23.3652 33.5919 21.3638 32.8023 19.8141 31.494C21.1764 31.3507 22.2417 30.1952 22.2417 28.7955H20.8355C20.8355 29.5163 20.2491 30.1028 19.5283 30.1028H18.4857C17.3334 28.6024 16.6477 26.7258 16.6477 24.6921V17.3608H20.0055C22.044 17.3608 23.7025 19.0192 23.7025 21.0577V21.3744C22.1181 21.3947 20.8355 22.6899 20.8355 24.279V25.0076H22.2417V24.279C22.2417 23.4653 22.8935 22.8009 23.7025 22.7807V24.2176H25.1086V21.0577C25.1086 20.4161 24.9897 19.8019 24.7725 19.2357H25.3226C28.3192 19.2357 30.7571 21.6736 30.7571 24.6703V27.4362H28.6155C26.7033 27.4362 25.1477 28.9919 25.1477 30.9041V32.0451H26.5539V30.9041C26.5539 29.8098 27.4107 28.912 28.4886 28.8463C28.291 29.2173 28.1788 29.6406 28.1788 30.0896V30.2953H29.585V30.0896C29.585 29.4271 30.1042 28.8836 30.7572 28.8446V31.3971C30.7571 32.6073 29.7726 33.5919 28.5623 33.5919Z" fill="#DF7E7E"/>
</g>
<defs>
<clipPath id="clip0_7119_18134">
<rect width="24" height="24" fill="white" transform="translate(11 11)"/>
</clipPath>
</defs>
</svg>
