<svg width="46" height="46" viewBox="0 0 46 46" fill="none" xmlns="http://www.w3.org/2000/svg">
<path d="M0 11.04C0 4.94278 4.94278 0 11.04 0H34.96C41.0572 0 46 4.94278 46 11.04V34.96C46 41.0572 41.0572 46 34.96 46H11.04C4.94278 46 0 41.0572 0 34.96V11.04Z" fill="#F0FBF9"/>
<g clip-path="url(#clip0_7119_18218)">
<path d="M15.4688 16.1719H27.5187C27.9071 16.1719 28.2219 15.8571 28.2219 15.4688C28.2219 15.0806 27.9071 14.7656 27.5187 14.7656H15.4688C15.0806 14.7656 14.7656 15.0806 14.7656 15.4688C14.7656 15.8571 15.0806 16.1719 15.4688 16.1719Z" fill="#5ABEAF"/>
<path d="M15.4688 19.9375H27.5187C27.9071 19.9375 28.2219 19.6226 28.2219 19.2344C28.2219 18.846 27.9071 18.5312 27.5187 18.5312H15.4688C15.0806 18.5312 14.7656 18.846 14.7656 19.2344C14.7656 19.6226 15.0806 19.9375 15.4688 19.9375Z" fill="#5ABEAF"/>
<path d="M19.2345 22.2969H15.4688C15.0806 22.2969 14.7656 22.6116 14.7656 23C14.7656 23.3884 15.0806 23.7031 15.4688 23.7031H19.2343C19.6227 23.7031 19.9374 23.3884 19.9374 23C19.9374 22.6116 19.6227 22.2969 19.2345 22.2969Z" fill="#5ABEAF"/>
<path d="M31.9875 22.3315V13.2094C31.9875 11.9946 31.0054 11 29.7782 11H13.2094C11.9911 11 11 11.9911 11 13.2094V31.2844C11 31.5688 11.1714 31.8251 11.4341 31.9341C11.5211 31.97 11.6125 31.9875 11.7029 31.9875C11.886 31.9875 12.0659 31.9161 12.2003 31.7816L16.2776 27.7042C16.4294 27.5524 16.6312 27.4689 16.8458 27.4689H21.7155C21.8007 27.9191 21.9167 28.3644 22.0643 28.8028L23.7879 33.9197C24.0052 34.5659 24.6247 35 25.3298 35C25.9075 35 26.442 34.6982 26.7245 34.2125L27.8212 32.3267C27.9059 32.1813 28.0828 32.0873 28.2718 32.0873C28.4608 32.0873 28.6376 32.1813 28.722 32.3263L29.8194 34.213C30.1025 34.6984 30.6368 35 31.2139 35C31.9189 35 32.5385 34.5659 32.7559 33.9199L34.4794 28.8028C34.8248 27.7765 35 26.711 35 25.636C35 23.9569 33.6886 22.5638 31.9875 22.3315ZM16.8458 26.0624C16.2557 26.0624 15.7009 26.2924 15.2834 26.7097L12.4062 29.5869V13.2094C12.4062 12.7666 12.7666 12.4062 13.2094 12.4062H29.7782C30.2204 12.4062 30.5813 12.7644 30.5813 13.2094V22.3632C29.6292 22.5113 29.1533 22.8568 28.272 22.8568C27.1497 22.8568 26.6876 22.2969 25.0583 22.2969C23.1203 22.2969 21.5438 23.7947 21.5438 25.636C21.5438 25.7783 21.5471 25.9205 21.5531 26.0624H16.8458ZM33.1466 28.3542L31.423 33.4713C31.399 33.5423 31.3112 33.5938 31.2139 33.5938C31.1376 33.5938 31.0654 33.558 31.035 33.5059C30.8389 33.1684 30.6088 32.7729 29.9375 31.6188C29.6006 31.0403 28.9623 30.6811 28.272 30.6811C27.5815 30.6811 26.9432 31.0403 26.6059 31.6193L25.5089 33.5055C25.4783 33.5582 25.4064 33.5938 25.3295 33.5938C25.2324 33.5938 25.1447 33.5423 25.1207 33.4713L23.3972 28.354C23.1005 27.4727 22.95 26.5583 22.95 25.636C22.95 24.5701 23.8958 23.7031 25.0587 23.7031C26.4281 23.7031 26.8608 24.2631 28.272 24.2631C29.6841 24.2631 30.1155 23.7031 31.4855 23.7031C32.648 23.7031 33.5938 24.5701 33.5938 25.636C33.5938 26.5583 33.4432 27.4727 33.1466 28.3542Z" fill="#5ABEAF"/>
</g>
<defs>
<clipPath id="clip0_7119_18218">
<rect width="24" height="24" fill="white" transform="translate(11 11)"/>
</clipPath>
</defs>
</svg>
