<svg width="46" height="46" viewBox="0 0 46 46" fill="none" xmlns="http://www.w3.org/2000/svg">
<path d="M0 11.04C0 4.94278 4.94278 0 11.04 0H34.96C41.0572 0 46 4.94278 46 11.04V34.96C46 41.0572 41.0572 46 34.96 46H11.04C4.94278 46 0 41.0572 0 34.96V11.04Z" fill="#D9ECF8"/>
<g clip-path="url(#clip0_7119_18127)">
<path d="M33.4881 22.9981C34.1432 22.4475 34.5605 21.6227 34.5605 20.702C34.5605 19.4259 33.7592 18.3341 32.6335 17.9015V17.28C32.6335 15.7105 31.5849 14.382 30.1517 13.9564C29.6936 12.2557 28.1385 11 26.295 11C24.9309 11 23.7248 11.6878 23.0039 12.7343C22.2829 11.6878 21.0769 11 19.7128 11C17.8692 11 16.3141 12.2557 15.8559 13.9564C14.4228 14.3821 13.3742 15.7105 13.3742 17.28V17.9015C12.2486 18.3341 11.4473 19.4259 11.4473 20.702C11.4473 21.6228 11.8646 22.4475 12.5196 22.9981C11.8646 23.5488 11.4473 24.3736 11.4473 25.2943C11.4473 26.5703 12.2486 27.6622 13.3742 28.0948V28.7161C13.3742 30.2851 14.4222 31.6133 15.8547 32.0393C16.3115 33.7422 17.8677 35 19.7128 35C21.077 35 22.283 34.3122 23.0039 33.2657C23.7249 34.3122 24.9309 35 26.2951 35C28.1401 35 29.6963 33.7422 30.1531 32.0393C31.5856 31.6133 32.6337 30.2851 32.6337 28.7161V28.0948C33.7593 27.6622 34.5606 26.5704 34.5606 25.2943C34.5605 24.3736 34.1432 23.5488 33.4881 22.9981ZM23.0038 21.2352C22.3064 21.2352 21.739 20.6678 21.739 19.9704C21.739 19.273 22.3064 18.7056 23.0038 18.7056C23.7013 18.7056 24.2687 19.273 24.2687 19.9704C24.2687 20.6678 23.7013 21.2352 23.0038 21.2352ZM19.7128 33.5935C18.6924 33.5935 17.8083 32.9998 17.3872 32.1398C19.0404 31.8771 20.3082 30.4421 20.3082 28.7161H18.9017C18.9017 29.8523 17.9774 30.7767 16.8412 30.7767C15.705 30.7767 14.7807 29.8523 14.7807 28.7161V28.2938H15.737V26.8873H14.4468C13.5684 26.8873 12.8537 26.1727 12.8537 25.2943C12.8537 24.4177 13.5654 23.7044 14.4414 23.7014C14.4432 23.7014 14.445 23.7016 14.4468 23.7016V23.7013V22.2951V22.2948C14.4449 22.2948 14.4432 22.295 14.4414 22.295C13.5655 22.292 12.8537 21.5786 12.8537 20.702C12.8537 19.8236 13.5684 19.109 14.4468 19.109H15.737V17.7025H14.7806V17.28C14.7806 16.1438 15.705 15.2194 16.8412 15.2194C17.9774 15.2194 18.9017 16.1438 18.9017 17.28H20.3082C20.3082 15.5547 19.0412 14.1201 17.3889 13.8567C17.8108 12.9986 18.6938 12.4065 19.7128 12.4065C21.139 12.4065 22.2994 13.5662 22.3006 14.9922C22.3006 14.9929 22.3006 14.9937 22.3006 14.9944H22.3007V17.3937C21.1679 17.7032 20.3325 18.7408 20.3325 19.9704C20.3325 20.4547 20.4626 20.9088 20.6889 21.3009L18.9848 23.0143C18.7107 22.8838 18.4044 22.8106 18.0812 22.8106C16.9179 22.8106 15.9714 23.757 15.9714 24.9203C15.9714 26.0836 16.9179 27.03 18.0812 27.03C19.2445 27.03 20.1909 26.0836 20.1909 24.9203C20.1909 24.5929 20.1159 24.2827 19.9823 24.006L21.6861 22.2928C21.8776 22.4018 22.0836 22.4879 22.3007 22.5472V31.0056H22.3006C22.3006 31.0064 22.3007 31.0071 22.3007 31.0079C22.2994 32.4338 21.139 33.5935 19.7128 33.5935ZM18.7844 24.9202C18.7844 25.308 18.4689 25.6235 18.0812 25.6235C17.6934 25.6235 17.3779 25.308 17.3779 24.9202C17.3779 24.5325 17.6934 24.217 18.0812 24.217C18.4689 24.217 18.7844 24.5325 18.7844 24.9202ZM31.561 26.8873H30.2708V28.2938H31.2271V28.7161C31.2271 29.8523 30.3027 30.7767 29.1666 30.7767C28.0304 30.7767 27.1061 29.8523 27.1061 28.7161H25.6996C25.6996 30.4421 26.9674 31.8771 28.6206 32.1398C28.1994 32.9998 27.3154 33.5936 26.295 33.5936C24.8686 33.5936 23.7081 32.4336 23.7071 31.0074C23.7071 31.0068 23.7072 31.0062 23.7072 31.0056V22.547C23.9242 22.4877 24.1301 22.4017 24.3215 22.2927L26.0254 24.0059C25.8917 24.2826 25.8168 24.5928 25.8168 24.9202C25.8168 26.0835 26.7632 27.0299 27.9265 27.0299C29.0898 27.0299 30.0362 26.0835 30.0362 24.9202C30.0362 23.7569 29.0898 22.8105 27.9265 22.8105C27.6032 22.8105 27.2969 22.8838 27.0228 23.0142L25.3187 21.3008C25.545 20.9087 25.6751 20.4546 25.6751 19.9703C25.6751 18.7408 24.8398 17.7032 23.7071 17.3937V14.9944C23.7071 14.9938 23.7071 14.9932 23.7071 14.9926C23.7081 13.5664 24.8686 12.4065 26.295 12.4065C27.314 12.4065 28.1969 12.9986 28.6188 13.8567C26.9665 14.1201 25.6996 15.5546 25.6996 17.28H27.1061C27.1061 16.1438 28.0304 15.2194 29.1666 15.2194C30.3027 15.2194 31.2271 16.1438 31.2271 17.28V17.7025H30.2708V19.109H31.561C32.4394 19.109 33.154 19.8236 33.154 20.702C33.154 21.5786 32.4423 22.292 31.5664 22.295C31.5646 22.295 31.5628 22.2948 31.561 22.2948V22.2951V23.7013V23.7016C31.5629 23.7016 31.5646 23.7014 31.5664 23.7014C32.4423 23.7044 33.154 24.4177 33.154 25.2943C33.154 26.1727 32.4394 26.8873 31.561 26.8873ZM27.9265 24.217C28.3143 24.217 28.6297 24.5325 28.6297 24.9202C28.6297 25.308 28.3143 25.6235 27.9265 25.6235C27.5387 25.6235 27.2233 25.308 27.2233 24.9202C27.2233 24.5325 27.5387 24.217 27.9265 24.217Z" fill="#007ECD"/>
</g>
<defs>
<clipPath id="clip0_7119_18127">
<rect width="24" height="24" fill="white" transform="translate(11 11)"/>
</clipPath>
</defs>
</svg>
