<svg width="46" height="46" viewBox="0 0 46 46" fill="none" xmlns="http://www.w3.org/2000/svg">
<rect width="46" height="46" rx="11.04" fill="#FEF4F4"/>
<g clip-path="url(#clip0_7119_18209)">
<path d="M17.4277 21.0664H20.937C21.3253 21.0664 21.6401 20.7516 21.6401 20.3633C21.6401 19.975 21.3253 19.6602 20.937 19.6602H17.4277C17.0394 19.6602 16.7246 19.975 16.7246 20.3633C16.7246 20.7516 17.0394 21.0664 17.4277 21.0664Z" fill="#F88C8C"/>
<path d="M17.4277 23.8594H20.937C21.3253 23.8594 21.6401 23.5446 21.6401 23.1563C21.6401 22.7679 21.3253 22.4531 20.937 22.4531H17.4277C17.0394 22.4531 16.7246 22.7679 16.7246 23.1563C16.7246 23.5446 17.0394 23.8594 17.4277 23.8594Z" fill="#F88C8C"/>
<path d="M33.7667 25.6815C32.93 24.5999 31.801 24.0043 30.5878 24.0043C30.2361 24.0043 29.8865 24.0568 29.5471 24.1586V24.0195C29.5471 23.5343 29.8941 23.122 30.3722 23.0391C30.7548 22.9728 31.0112 22.6089 30.9449 22.2263C30.8787 21.8436 30.5147 21.5872 30.1321 21.6535C29.9259 21.6892 29.7301 21.7507 29.5471 21.8337V18.086C31.0932 17.6814 32.2373 16.2727 32.2373 14.6015C32.2373 12.6156 30.6217 11 28.6358 11H14.5341C12.5854 11 11 12.5854 11 14.5342V30.9867C11 31.3751 11.3148 31.6899 11.7031 31.6899H13.8068V34.2806C13.8068 34.4671 13.8809 34.6459 14.0128 34.7778C14.1447 34.9096 14.3235 35 14.51 35H27.1002C27.7012 35 28.2963 34.8476 28.844 34.556C29.3917 34.8476 29.9867 35 30.5878 35C31.8011 35 32.93 34.4043 33.7667 33.3228C34.562 32.2946 35 30.9378 35 29.5021C35 28.0665 34.562 26.7097 33.7667 25.6815ZM28.6358 12.4062C29.8463 12.4062 30.8311 13.391 30.8311 14.6015C30.8311 15.812 29.8463 16.7969 28.6358 16.7969H17.7028C18.6761 15.5948 18.6935 13.6394 17.6972 12.4062H28.6358ZM14.51 13.6849C14.1216 13.6849 13.8068 13.9997 13.8068 14.388V30.2836H12.4062V14.5342C12.4062 13.3615 13.3598 12.4062 14.5323 12.4062C15.6882 12.4062 16.4527 12.8281 16.8392 13.6849H14.51ZM16.9866 15.0911C16.896 15.4913 16.6949 15.8588 16.3974 16.1558C16.0707 16.482 15.6594 16.6926 15.2131 16.7671V15.0911H16.9866ZM15.2131 33.5773V18.2031H28.1408V24.1586C27.8015 24.0568 27.4519 24.0043 27.1001 24.0043C26.0587 24.0043 25.0796 24.4436 24.2939 25.2519H17.4257C17.0374 25.2519 16.7226 25.5667 16.7226 25.955C16.7226 26.3434 17.0374 26.6582 17.4257 26.6582H23.3203C23.1103 27.0918 22.9504 27.5587 22.844 28.0475H17.4257C17.0374 28.0475 16.7226 28.3623 16.7226 28.7506C16.7226 29.1389 17.0374 29.4537 17.4257 29.4537H22.6889C22.6888 29.4699 22.688 29.486 22.688 29.5021C22.688 29.9599 22.733 30.4094 22.8194 30.843H17.4257C17.0374 30.843 16.7226 31.1578 16.7226 31.5461C16.7226 31.9344 17.0374 32.2492 17.4257 32.2492H23.2736C23.4517 32.6349 23.6683 32.9956 23.9213 33.3227C23.9894 33.4107 24.0596 33.4951 24.1314 33.5766L15.2131 33.5773ZM32.6544 32.4623C32.09 33.1919 31.356 33.5938 30.5878 33.5938C30.1172 33.5938 29.6648 33.4463 29.2434 33.1554C29.1232 33.0725 28.9836 33.031 28.844 33.031C28.7044 33.031 28.5649 33.0725 28.4446 33.1554C28.0055 33.486 27.38 33.6246 26.8282 33.5765C26.1601 33.4933 25.531 33.1053 25.0336 32.4623C23.7776 30.8756 23.7977 28.109 25.0336 26.542C25.598 25.8124 26.3319 25.4105 27.1001 25.4105C27.5708 25.4105 28.0231 25.558 28.4446 25.8488C28.6507 25.9921 28.9738 26.0333 29.2433 25.8488C29.6647 25.558 30.1171 25.4105 30.5877 25.4105C31.356 25.4105 32.0899 25.8124 32.6543 26.542C33.8834 28.0527 33.9049 30.9219 32.6544 32.4623Z" fill="#F88C8C"/>
</g>
<defs>
<clipPath id="clip0_7119_18209">
<rect width="24" height="24" fill="white" transform="translate(11 11)"/>
</clipPath>
</defs>
</svg>
