<svg width="46" height="46" viewBox="0 0 46 46" fill="none" xmlns="http://www.w3.org/2000/svg">
<path d="M0 11.04C0 4.94278 4.94278 0 11.04 0H34.96C41.0572 0 46 4.94278 46 11.04V34.96C46 41.0572 41.0572 46 34.96 46H11.04C4.94278 46 0 41.0572 0 34.96V11.04Z" fill="#E8F8F6"/>
<path d="M26.0006 11H22.0006C20.0114 11 18.1038 11.7902 16.6973 13.1967C15.2907 14.6032 14.5006 16.5109 14.5006 18.5V19.34L12.0606 23.76C12.0208 23.8337 12.0001 23.9162 12.0006 24C11.995 24.1985 12.0301 24.396 12.1035 24.5805C12.1769 24.765 12.2872 24.9325 12.4276 25.0729C12.568 25.2133 12.7356 25.3236 12.9201 25.3971C13.1046 25.4705 13.3021 25.5055 13.5006 25.5C13.8643 25.5203 14.2132 25.6512 14.5006 25.875V27.5C14.493 27.7647 14.5395 28.0282 14.6373 28.2743C14.7351 28.5203 14.8822 28.7439 15.0694 28.9311C15.2567 29.1184 15.4802 29.2654 15.7263 29.3632C15.9724 29.4611 16.2359 29.5076 16.5006 29.5H19.5006C19.5856 29.5 20.0006 29.58 20.0006 30.5V34.5C20.0006 34.6326 20.0532 34.7598 20.147 34.8536C20.2408 34.9473 20.368 35 20.5006 35H31.0006C31.1332 35 31.2603 34.9473 31.3541 34.8536C31.4479 34.7598 31.5006 34.6326 31.5006 34.5V31.455C33.0656 31.16 33.8106 29.51 34.0006 28.6C34.0039 28.5668 34.0039 28.5332 34.0006 28.5V18.5C34.0006 14.5 30.2606 11 26.0006 11ZM33.0006 28.445C32.9306 28.745 32.4456 30.5 31.0006 30.5C30.868 30.5 30.7408 30.5527 30.647 30.6464C30.5532 30.7402 30.5006 30.8674 30.5006 31V34H21.0006V30.5C21.0006 28.92 20.0006 28.5 19.5006 28.5H16.5006C16.367 28.5088 16.233 28.489 16.1077 28.4419C15.9823 28.3948 15.8685 28.3214 15.7738 28.2267C15.6792 28.132 15.6058 28.0182 15.5587 27.8929C15.5115 27.7676 15.4917 27.6336 15.5006 27.5V25.635C15.5005 25.564 15.4853 25.4938 15.456 25.4292C15.4266 25.3645 15.3839 25.3069 15.3306 25.26C14.8294 24.7986 14.1812 24.5293 13.5006 24.5C13.442 24.5084 13.3823 24.5049 13.325 24.4896C13.2678 24.4744 13.2143 24.4478 13.1676 24.4114C13.1209 24.375 13.082 24.3295 13.0533 24.2777C13.0246 24.2259 13.0067 24.1689 13.0006 24.11L15.4306 19.71C15.4738 19.6372 15.4979 19.5546 15.5006 19.47V18.5C15.5006 16.7761 16.1854 15.1228 17.4044 13.9038C18.6234 12.6848 20.2767 12 22.0006 12H26.0006C29.7306 12 33.0006 15.035 33.0006 18.5V28.445Z" fill="#5ABEAF"/>
<path d="M29.5 15H25.5C25.13 15.0022 24.7738 15.1411 24.5 15.39C24.2262 15.1411 23.87 15.0022 23.5 15H19.5C19.1022 15 18.7206 15.158 18.4393 15.4393C18.158 15.7206 18 16.1022 18 16.5V19.5C18 19.6326 18.0527 19.7598 18.1464 19.8536C18.2402 19.9473 18.3674 20 18.5 20H23V19H19V16.5C19 16.3674 19.0527 16.2402 19.1464 16.1464C19.2402 16.0527 19.3674 16 19.5 16H23.5C23.6326 16 23.7598 16.0527 23.8536 16.1464C23.9473 16.2402 24 16.3674 24 16.5V17H20.5V18H24V21.5C24.0061 21.5672 23.9974 21.6349 23.9745 21.6984C23.9515 21.7618 23.9149 21.8195 23.8672 21.8672C23.8195 21.9149 23.7618 21.9515 23.6984 21.9745C23.6349 21.9974 23.5672 22.0061 23.5 22H22C21.8015 21.9945 21.604 22.0295 21.4195 22.1029C21.235 22.1764 21.0675 22.2867 20.9271 22.4271C20.7867 22.5675 20.6764 22.735 20.6029 22.9195C20.5295 23.104 20.4945 23.3015 20.5 23.5V25C20.4945 25.1985 20.5295 25.396 20.6029 25.5805C20.6764 25.765 20.7867 25.9325 20.9271 26.0729C21.0675 26.2133 21.235 26.3236 21.4195 26.3971C21.604 26.4705 21.8015 26.5055 22 26.5H24V31.5C23.9945 31.6985 24.0295 31.896 24.1029 32.0805C24.1764 32.265 24.2867 32.4325 24.4271 32.5729C24.5675 32.7133 24.735 32.8236 24.9195 32.8971C25.104 32.9705 25.3015 33.0055 25.5 33H27.5V32H25.5C25.4326 32.0071 25.3645 31.999 25.3006 31.9764C25.2367 31.9537 25.1787 31.9171 25.1308 31.8692C25.0829 31.8213 25.0463 31.7633 25.0236 31.6994C25.001 31.6355 24.9929 31.5674 25 31.5V25C24.9939 24.9328 25.0026 24.8651 25.0255 24.8016C25.0485 24.7382 25.0851 24.6805 25.1328 24.6328C25.1805 24.5851 25.2382 24.5485 25.3016 24.5255C25.3651 24.5026 25.4328 24.4939 25.5 24.5H27C27.1985 24.5055 27.396 24.4705 27.5805 24.3971C27.765 24.3236 27.9325 24.2133 28.0729 24.0729C28.2133 23.9325 28.3236 23.765 28.3971 23.5805C28.4705 23.396 28.5055 23.1985 28.5 23V22H27.5V23C27.5071 23.0674 27.499 23.1355 27.4764 23.1994C27.4537 23.2633 27.4171 23.3213 27.3692 23.3692C27.3213 23.4171 27.2633 23.4537 27.1994 23.4764C27.1355 23.499 27.0674 23.5071 27 23.5H25.5C25.3015 23.4945 25.104 23.5295 24.9195 23.6029C24.735 23.6764 24.5675 23.7867 24.4271 23.9271C24.2867 24.0675 24.1764 24.235 24.1029 24.4195C24.0295 24.604 23.9945 24.8015 24 25V25.5H22C21.9326 25.5071 21.8645 25.499 21.8006 25.4764C21.7367 25.4537 21.6787 25.4171 21.6308 25.3692C21.5829 25.3213 21.5463 25.2633 21.5236 25.1994C21.501 25.1355 21.4929 25.0674 21.5 25V23.5C21.4929 23.4326 21.501 23.3645 21.5236 23.3006C21.5463 23.2367 21.5829 23.1787 21.6308 23.1308C21.6787 23.0829 21.7367 23.0463 21.8006 23.0236C21.8645 23.001 21.9326 22.9929 22 23H23.5C23.6985 23.0055 23.896 22.9705 24.0805 22.8971C24.265 22.8236 24.4325 22.7133 24.5729 22.5729C24.7133 22.4325 24.8236 22.265 24.8971 22.0805C24.9705 21.896 25.0055 21.6985 25 21.5V18H28.5V17H25V16.5C25 16.3674 25.0527 16.2402 25.1464 16.1464C25.2402 16.0527 25.3674 16 25.5 16H29.5C29.6326 16 29.7598 16.0527 29.8536 16.1464C29.9473 16.2402 30 16.3674 30 16.5V19H26V20H30.5C30.6326 20 30.7598 19.9473 30.8536 19.8536C30.9473 19.7598 31 19.6326 31 19.5V16.5C31 16.1022 30.842 15.7206 30.5607 15.4393C30.2794 15.158 29.8978 15 29.5 15Z" fill="#5ABEAF"/>
</svg>
