<svg width="46" height="46" viewBox="0 0 46 46" fill="none" xmlns="http://www.w3.org/2000/svg">
<path d="M0 11.04C0 4.94278 4.94278 0 11.04 0H34.96C41.0572 0 46 4.94278 46 11.04V34.96C46 41.0572 41.0572 46 34.96 46H11.04C4.94278 46 0 41.0572 0 34.96V11.04Z" fill="#FEEEEE"/>
<g clip-path="url(#clip0_7119_18234)">
<path d="M30.0127 14.9317L29.6414 14.9315H29.6396C28.4106 14.9315 27.2346 15.5168 26.4938 16.4975L25.6275 17.6441V12.9922C25.6275 12.4399 25.1798 11.9922 24.6275 11.9922H21.3724C20.8201 11.9922 20.3724 12.4399 20.3724 12.9922V17.6447L19.5074 16.4996C18.7665 15.519 17.5906 14.9336 16.3617 14.9336H15.9896C13.2383 14.9336 11 17.172 11 19.9233V22.4986C11 23.4867 11.2897 24.4435 11.8378 25.2657L13.0114 27.0261C13.405 27.6165 13.613 28.3035 13.613 29.013C13.613 31.7636 15.8508 34.0014 18.6014 34.0014H18.7149C20.5338 34.0014 22.1284 33.0229 23 31.5646C23.8717 33.0229 25.4663 34.0014 27.2852 34.0014H27.3986C30.1493 34.0014 32.3871 31.7636 32.3871 29.013C32.3871 28.3035 32.5951 27.6165 32.9886 27.0261L34.1623 25.2657C34.7103 24.4435 35 23.4867 35 22.4986V19.9213C35 17.1713 32.7627 14.9329 30.0127 14.9317ZM24.221 17.0252C24.221 17.4339 23.8897 17.7651 23.4811 17.7652L22.5192 17.7653C22.1105 17.7653 21.7791 17.434 21.7791 17.0253C21.7791 16.6165 22.1104 16.2852 22.5191 16.2852H23.481C23.8897 16.2852 24.221 16.6165 24.221 17.0252ZM20.3062 23.3762C20.6647 24.0225 20.8535 24.7506 20.8535 25.4913V26.2267H19.4948C18.1331 26.2267 17.0253 25.1189 17.0253 23.7572C17.0253 23.2339 17.3017 22.7757 17.7646 22.5316C18.2275 22.2876 18.7616 22.3184 19.1934 22.6142L20.3062 23.3762ZM21.4383 22.5242C21.0318 21.8468 20.817 21.0711 20.817 20.2809V19.172L25.1831 19.1716V20.2809C25.1831 21.071 24.9682 21.8467 24.5617 22.5242C24.0241 23.4203 23.7399 24.4463 23.7399 25.4912V26.2267H22.2601V25.4912C22.2601 24.4463 21.976 23.4203 21.4383 22.5242ZM25.1465 25.4913C25.1465 24.7506 25.3353 24.0225 25.6938 23.3762L26.8066 22.6141C27.2385 22.3184 27.7726 22.2876 28.2355 22.5316C28.6984 22.7756 28.9748 23.2338 28.9748 23.7571C28.9748 25.1188 27.867 26.2267 26.5053 26.2267H25.1466L25.1465 25.4913ZM23.4811 13.3988C23.8897 13.3988 24.221 13.7301 24.221 14.1387C24.221 14.5473 23.8897 14.8786 23.4811 14.8786H22.519C22.1104 14.8786 21.7791 14.5473 21.7791 14.1387C21.7791 13.7301 22.1103 13.3988 22.519 13.3988H23.4811ZM18.7149 32.5948H18.6014C16.6264 32.5948 15.0196 30.9879 15.0196 29.0129C15.0196 28.0248 14.7299 27.068 14.1818 26.2458L13.0082 24.4854C12.6146 23.8951 12.4066 23.208 12.4066 22.4986V19.9233C12.4066 17.9476 14.0139 16.3403 15.9896 16.3403H16.3617C17.1521 16.3403 17.9086 16.7168 18.3851 17.3475L19.4104 18.7046V20.2809C19.4104 20.5823 19.434 20.8821 19.4805 21.1777C18.722 20.862 17.8546 20.8941 17.1086 21.2873C13.9658 23.0994 16.2477 27.767 19.4948 27.6333H22.2967V29.0129C22.2967 30.9879 20.6899 32.5948 18.7149 32.5948ZM33.5934 22.4986C33.5934 23.2081 33.3854 23.8951 32.9919 24.4854L31.8182 26.2459C31.2701 27.068 30.9804 28.0248 30.9804 29.013C30.9804 30.988 29.3736 32.5948 27.3986 32.5948H27.2851C25.3101 32.5948 23.7033 30.988 23.7033 29.013V27.6333H26.5052C29.7533 27.7669 32.0335 23.0988 28.8915 21.2873C28.1454 20.8941 27.2781 20.862 26.5195 21.1778C26.5661 20.8822 26.5897 20.5824 26.5897 20.281V18.7041L27.6161 17.3454C28.0927 16.7146 28.849 16.3381 29.6396 16.3381H29.6407L30.012 16.3383C31.9868 16.3392 33.5934 17.9466 33.5934 19.9213V22.4986Z" fill="#DF7E7E"/>
<path d="M26.6953 29.719C26.6953 29.3306 27.0102 29.0156 27.3986 29.0156C27.787 29.0156 28.1019 29.3306 28.1019 29.719C28.1019 30.1074 27.787 30.4223 27.3986 30.4223C27.0102 30.4223 26.6953 30.1074 26.6953 29.719Z" fill="#DF7E7E"/>
<path d="M17.8984 29.719C17.8984 29.3306 18.2133 29.0156 18.6017 29.0156C18.9902 29.0156 19.305 29.3306 19.305 29.719C19.305 30.1074 18.9902 30.4223 18.6017 30.4223C18.2133 30.4223 17.8984 30.1074 17.8984 29.719Z" fill="#DF7E7E"/>
</g>
<defs>
<clipPath id="clip0_7119_18234">
<rect width="24" height="24" fill="white" transform="translate(11 11)"/>
</clipPath>
</defs>
</svg>
